<svg xmlns="http://www.w3.org/2000/svg" viewBox="0 0 512 512" width="512" height="512">
    <rect width="512" height="512" fill="#1a1a1a" rx="112" />

    <path fill="#cfa86e" fill-rule="nonzero" d="
        M 256,40 
        C 285,40 292,80 292,140 
        L 292,210 
        L 480,335 
        C 490,340 490,355 480,360 
        L 292,320 
        L 292,420 
        L 370,460 
        C 375,463 375,475 365,475 
        L 280,460 
        L 256,490 
        L 232,460 
        L 147,475 
        C 137,475 137,463 142,460 
        L 220,420 
        L 220,320 
        L 32,360 
        C 22,355 22,340 32,335 
        L 220,210 
        L 220,140 
        C 220,80 227,40 256,40 
        Z
        M 155,240 c 6.6,0 12,5.4 12,12 v 31 c 0,6.6 -5.4,12 -12,12 c -6.6,0 -12,-5.4 -12,-12 v -31 c 0,-6.6 5.4,-12 12,-12 z
        M 88,285 c 5,0 9,4 9,9 v 27 c 0,5 -4,9 -9,9 c -5,0 -9,-4 -9,-9 v -27 c 0,-5 4,-9 9,-9 z
        M 357,240 c 6.6,0 12,5.4 12,12 v 31 c 0,6.6 -5.4,12 -12,12 c -6.6,0 -12,-5.4 -12,-12 v -31 c 0,-6.6 5.4,-12 12,-12 z
        M 424,285 c 5,0 9,4 9,9 v 27 c 0,5 -4,9 -9,9 c -5,0 -9,-4 -9,-9 v -27 c 0,-5 4,-9 9,-9 z
        M 256,55 C 244,55 237,60 234,70 C 244,66 268,66 278,70 C 275,60 268,55 256,55 Z
    " />
</svg>
